<svg xmlns="http://www.w3.org/2000/svg" width="26.289" height="26.289" viewBox="0 0 26.289 26.289">
  <g id="Group_1" data-name="Group 1" transform="translate(-297.638 -87.867)">
    <path id="Path_1" data-name="Path 1" d="M300.606,109.332a13.144,13.144,0,1,1,20.347.007Zm0,0" fill="#004262"/>
    <path id="Path_2" data-name="Path 2" d="M356.1,106.883a5.481,5.481,0,1,1-5.48-5.481,5.48,5.48,0,0,1,5.48,5.481Zm0,0" transform="translate(-39.832 -11.351)" fill="#ffd7e1"/>
    <path id="Path_3" data-name="Path 3" d="M384.6,106.883a5.48,5.48,0,0,0-5.477-5.481v10.96a5.48,5.48,0,0,0,5.477-5.48Zm0,0" transform="translate(-68.333 -11.351)" fill="#ff6890"/>
    <path id="Path_4" data-name="Path 4" d="M326.209,190.364a13.119,13.119,0,0,0,10.176-4.824,11.013,11.013,0,0,0-20.352,0,13.119,13.119,0,0,0,10.176,4.824Zm0,0" transform="translate(-15.427 -76.208)" fill="#ffd7e1"/>
    <path id="Path_5" data-name="Path 5" d="M389.292,185.54a11.012,11.012,0,0,0-10.173-6.8v11.626a13.117,13.117,0,0,0,10.173-4.824Zm0,0" transform="translate(-68.333 -76.208)" fill="#ff6890"/>
  </g>
</svg>
